<svg xmlns="http://www.w3.org/2000/svg" width="980" height="780" viewBox="0 0 980 780" font-family="-apple-system,Segoe UI,Roboto,Helvetica,Arial,sans-serif">
  <rect width="980" height="780" fill="#ffffff"/>
  <text x="40" y="40" font-size="23" font-weight="700" fill="#0f172a">Myco — system layering (single device)</text>
  <text x="40" y="63" font-size="13" fill="#64748b">DRAFT for review. The browser only ever loads http://localhost; cross-device fetch happens in native code over FIPS.</text>

  <!-- legend -->
  <g font-size="11.5" fill="#334155">
    <rect x="600" y="22" width="14" height="14" rx="3" fill="#16a34a"/><text x="620" y="33">net-new</text>
    <rect x="688" y="22" width="14" height="14" rx="3" fill="#d97706"/><text x="708" y="33">port (site-deck)</text>
    <rect x="812" y="22" width="14" height="14" rx="3" fill="#2563eb"/><text x="832" y="33">reuse (nostr-vpn)</text>
    <rect x="600" y="44" width="14" height="14" rx="3" fill="#0d9488"/><text x="620" y="55">reuse (fips-core)</text>
    <rect x="712" y="44" width="14" height="14" rx="3" fill="#94a3b8"/><text x="732" y="55">mixed</text>
  </g>

  <!-- down arrow marker -->
  <defs>
    <marker id="arr" markerWidth="10" markerHeight="10" refX="5" refY="5" orient="auto">
      <path d="M1,1 L9,5 L1,9 Z" fill="#94a3b8"/>
    </marker>
  </defs>

  <!-- Band template: x=40 w=900 h=98 -->
  <!-- Band 1 -->
  <g>
    <rect x="40" y="90" width="900" height="98" rx="10" fill="#f8fafc" stroke="#cbd5e1"/>
    <rect x="40" y="90" width="8" height="98" rx="4" fill="#16a34a"/>
    <text x="66" y="120" font-size="16" font-weight="700" fill="#0f172a">Android UI  (Jetpack Compose)</text>
    <text x="66" y="146" font-size="13" fill="#475569">Myco manager: Library · Pair · Discover · Settings   ·   QR pair (scan + show)</text>
    <text x="66" y="167" font-size="13" fill="#475569">each nsite opens as a SEPARATE fullscreen app (NsiteActivity) — no Myco chrome</text>
    <text x="930" y="112" font-size="11" font-weight="700" fill="#16a34a" text-anchor="end">NEW</text>
  </g>
  <line x1="120" y1="188" x2="120" y2="202" stroke="#94a3b8" stroke-width="2" marker-end="url(#arr)"/>

  <!-- Band 2 -->
  <g>
    <rect x="40" y="202" width="900" height="98" rx="10" fill="#f8fafc" stroke="#cbd5e1"/>
    <rect x="40" y="202" width="8" height="98" rx="4" fill="#d97706"/>
    <text x="66" y="232" font-size="16" font-weight="700" fill="#0f172a">Local gateway + name resolution</text>
    <text x="66" y="258" font-size="13" fill="#475569">serves nsites from http://&lt;site&gt;.nsite   ·   *.nsite → 127.0.0.1 (A record)   ·   loading page + poll while syncing</text>
    <text x="66" y="279" font-size="13" fill="#475569">.nsite is IPv4/localhost → works in any browser; only relay+blossom sync is reached over .fips</text>
    <text x="930" y="224" font-size="11" font-weight="700" fill="#d97706" text-anchor="end">PORT</text>
  </g>
  <line x1="120" y1="300" x2="120" y2="314" stroke="#94a3b8" stroke-width="2" marker-end="url(#arr)"/>

  <!-- Band 3 -->
  <g>
    <rect x="40" y="314" width="900" height="98" rx="10" fill="#f8fafc" stroke="#cbd5e1"/>
    <rect x="40" y="314" width="8" height="98" rx="4" fill="#d97706"/>
    <text x="66" y="344" font-size="16" font-weight="700" fill="#0f172a">Embedded Nostr relay  +  Blossom server</text>
    <text x="66" y="370" font-size="13" fill="#475569">relay ws://localhost:4869   ·   Blossom http://localhost:24242   ·   kind 15128/35128 manifests + sha256 blobs</text>
    <text x="66" y="391" font-size="13" fill="#475569">store-and-forward cache: holds peers' signed events/blobs and re-serves them (relay-of-relays)</text>
    <text x="930" y="336" font-size="11" font-weight="700" fill="#d97706" text-anchor="end">PORT · lang TBD</text>
  </g>
  <line x1="120" y1="412" x2="120" y2="426" stroke="#94a3b8" stroke-width="2" marker-end="url(#arr)"/>

  <!-- Band 4 -->
  <g>
    <rect x="40" y="426" width="900" height="98" rx="10" fill="#f8fafc" stroke="#cbd5e1"/>
    <rect x="40" y="426" width="8" height="98" rx="4" fill="#2563eb"/>
    <text x="66" y="456" font-size="16" font-weight="700" fill="#0f172a">fips-mobile  (Rust)  —  FFI to Kotlin</text>
    <text x="66" y="482" font-size="13" fill="#475569">JNI/JSON FFI, cdylib via cargo-ndk   ·   dispatch→state(rev) reducer   ·   identity (nsec) in filesDir</text>
    <text x="66" y="503" font-size="13" fill="#475569">binds relay+blossom into FIPS (peers reach &lt;npub&gt;.fips:4869 / :24242)   ·   KEEP TUN: routes fd00::/8 + .fips/.nsite DNS, system-wide   ·   drop exit-node / tunnel-all / roster</text>
    <text x="930" y="448" font-size="11" font-weight="700" fill="#2563eb" text-anchor="end">REUSE</text>
  </g>
  <line x1="120" y1="524" x2="120" y2="538" stroke="#94a3b8" stroke-width="2" marker-end="url(#arr)"/>

  <!-- Band 5 -->
  <g>
    <rect x="40" y="538" width="900" height="98" rx="10" fill="#f8fafc" stroke="#cbd5e1"/>
    <rect x="40" y="538" width="8" height="98" rx="4" fill="#0d9488"/>
    <text x="66" y="568" font-size="16" font-weight="700" fill="#0f172a">FIPS core mesh  (upstream fips crate)</text>
    <text x="66" y="594" font-size="13" fill="#475569">identity: npub → node_addr = SHA256(npub)[:16] → fd00::/8   ·   .fips DNS   ·   spanning-tree routing</text>
    <text x="66" y="615" font-size="13" fill="#475569">Noise XK end-to-end + Noise IK hop-by-hop   ·   FSP port-mux delivers to localhost services</text>
    <text x="930" y="560" font-size="11" font-weight="700" fill="#0d9488" text-anchor="end">REUSE</text>
  </g>
  <line x1="120" y1="636" x2="120" y2="650" stroke="#94a3b8" stroke-width="2" marker-end="url(#arr)"/>

  <!-- Band 6 -->
  <g>
    <rect x="40" y="650" width="900" height="98" rx="10" fill="#f8fafc" stroke="#cbd5e1"/>
    <rect x="40" y="650" width="8" height="98" rx="4" fill="#94a3b8"/>
    <text x="66" y="680" font-size="16" font-weight="700" fill="#0f172a">Transports</text>
    <text x="66" y="706" font-size="13" fill="#475569">UDP / TCP / Tor (reuse fips-core)   ·   BLE = L2CAP CoC: core logic reuse, AndroidBleIo net-new</text>
    <text x="66" y="727" font-size="13" fill="#475569">lift bitchat's GATT/connection/power managers as the Android BLE substrate   ·   WiFi-Direct + public-node = future</text>
    <text x="930" y="672" font-size="11" font-weight="700" fill="#64748b" text-anchor="end">MIXED</text>
  </g>
</svg>
